<svg width="90" height="90" viewBox="0 0 90 90" fill="none" xmlns="http://www.w3.org/2000/svg">
<mask id="mask0_1350_2368" style="mask-type:alpha" maskUnits="userSpaceOnUse" x="0" y="0" width="90" height="90">
<circle cx="44.958" cy="45.0077" r="44.3916" fill="white"/>
</mask>
<g mask="url(#mask0_1350_2368)">
<path d="M71.0858 71.7118H71.058H59.0073V87.3932H71.058H71.0858H83.1339V71.7118H71.0858Z" fill="#370C38"/>
<path d="M78.8772 71.6389H63.4963V86.805H78.8772V71.6389Z" fill="#3F1142"/>
<path d="M79.0817 34.8109C77.327 28.6922 71.0858 27.2367 71.0858 27.2367C71.0858 27.2367 64.8446 28.6922 63.0899 34.8109C61.3352 40.9297 55.1899 64.6227 56.9446 71.7093H85.2269C86.9816 64.6202 80.8389 40.9271 79.0817 34.8109Z" fill="#7C2C78"/>
<path d="M79.0816 34.8109C77.3269 28.6922 71.0857 27.2367 71.0857 27.2367V71.7093H85.2269C86.9816 64.6202 80.8388 40.9271 79.0816 34.8109Z" fill="#682368"/>
<path d="M68.5839 71.6389H57.0028C56.6897 70.3241 56.6241 68.3583 56.8109 65.7942C56.9876 63.3658 57.3916 60.3743 58.0102 56.8976C58.0177 56.8574 57.99 56.8197 57.9521 56.8122C57.9117 56.8046 57.8738 56.8323 57.8663 56.87C57.2452 60.3491 56.8412 63.3482 56.6645 65.7816C56.4751 68.396 56.5433 70.397 56.874 71.7268C56.8816 71.7595 56.9119 71.7822 56.9447 71.7822H68.5813C68.6217 71.7822 68.6545 71.7495 68.6545 71.7092C68.6545 71.669 68.6217 71.6363 68.5813 71.6363L68.5839 71.6389Z" fill="#370C38"/>
<path d="M71.0683 27.1663C71.0051 27.1814 64.7639 28.7023 63.0168 34.7908C63.0067 34.8285 63.0294 34.8688 63.0673 34.8813C63.0749 34.8813 63.0799 34.8838 63.0875 34.8838C63.1203 34.8838 63.1481 34.8637 63.1582 34.831C64.8801 28.828 71.0405 27.3222 71.1011 27.3071C71.1415 27.297 71.1642 27.2593 71.1566 27.2191C71.1465 27.1789 71.1087 27.1563 71.0683 27.1638V27.1663Z" fill="#370C38"/>
<path d="M84.4518 57.7096C83.4445 51.8548 81.9978 45.711 80.9626 41.5857C80.9525 41.5455 80.9121 41.5229 80.8743 41.533C80.8339 41.543 80.8111 41.5832 80.8212 41.6209C81.8564 45.7411 83.3031 51.8825 84.3079 57.7322C85.4794 64.5372 85.7647 69.2331 85.1562 71.6917C85.1461 71.7319 85.1714 71.7696 85.2093 71.7796C85.2143 71.7796 85.2219 71.7796 85.2269 71.7796C85.2598 71.7796 85.2901 71.757 85.2976 71.7243C85.9111 69.2482 85.6258 64.5322 84.4518 57.7071V57.7096Z" fill="#370C38"/>
<path d="M67.6119 30.0045C67.6119 30.0045 59.3837 45.2007 59.0908 71.7093H60.7496C60.7496 71.7093 59.361 54.7156 67.6119 30.0045Z" fill="#934A93"/>
<path d="M68.5838 30.0045C68.5838 30.0045 62.3956 46.6587 61.3276 71.7093H62.9788C62.9788 71.7093 64.0317 46.2691 68.5813 30.0045H68.5838Z" fill="#934A93"/>
<path d="M75.176 30.0045C75.176 30.0045 83.4042 45.2007 83.6971 71.7093H82.0383C82.0383 71.7093 83.4269 54.7156 75.176 30.0045Z" fill="#934A93"/>
<path d="M74.2041 30.0045C74.2041 30.0045 80.3923 46.6587 81.4603 71.7093H79.8091C79.8091 71.7093 78.7562 46.2691 74.2066 30.0045H74.2041Z" fill="#934A93"/>
<path d="M65.6981 73.8964H56.3843V74.3564H65.6981V73.8964Z" fill="#F2A661"/>
<path d="M85.7875 73.8964H76.4736V74.3564H85.7875V73.8964Z" fill="#F2A661"/>
<path d="M86.0551 73.6299L80.7152 61.7595H61.4539L56.114 73.6299H65.6955C66.867 68.9692 71.0833 69.3337 71.0833 69.3337C71.0833 69.3337 75.3022 68.9692 76.4711 73.6299H86.0526H86.0551Z" fill="#F2A661"/>
<path d="M65.6955 73.6299H56.6316V73.8964H65.6955V73.6299Z" fill="#915422"/>
<path d="M76.4762 73.8964H85.54V73.6299H76.4762V73.8964Z" fill="#915422"/>
<path d="M64.3725 69.2784L63.2212 69.7334L63.9079 70.1708L64.5947 70.6082L64.529 69.3764C64.529 69.3764 66.8114 68.9566 66.4377 66.2316C63.7943 67.036 64.37 69.2758 64.37 69.2758L64.3725 69.2784Z" fill="white"/>
<path d="M65.2586 72.8509H57.495L61.4639 63.9795C61.4841 63.9343 61.4639 63.884 61.4184 63.8639C61.373 63.8438 61.3225 63.8639 61.3023 63.9091L57.2803 72.9037C57.2677 72.9313 57.2703 72.9615 57.2879 72.9867C57.3031 73.0118 57.3308 73.0269 57.3611 73.0269H65.2611C65.3091 73.0269 65.3495 72.9866 65.3495 72.9389C65.3495 72.8911 65.3091 72.8509 65.2611 72.8509H65.2586Z" fill="white"/>
<path d="M77.5744 70.6107L78.2612 70.1733L78.9479 69.7359L77.7966 69.2809C77.7966 69.2809 78.3697 67.0411 75.7288 66.2366C75.3552 68.9617 77.6376 69.3815 77.6376 69.3815L77.5719 70.6133L77.5744 70.6107Z" fill="white"/>
<path d="M84.8911 72.9008L80.8691 63.9063C80.8489 63.861 80.7959 63.8434 80.753 63.861C80.7075 63.8811 80.6899 63.9314 80.7075 63.9767L84.6765 72.8481H76.9128C76.8649 72.8481 76.8245 72.8883 76.8245 72.936C76.8245 72.9838 76.8649 73.024 76.9128 73.024H84.8128C84.8431 73.024 84.8709 73.0089 84.886 72.9838C84.9012 72.9587 84.9037 72.9285 84.8936 72.9008H84.8911Z" fill="white"/>
<path d="M71.0705 65.945C70.3838 65.945 69.8284 66.4981 69.8284 67.1818C69.8284 67.8656 70.3838 68.4212 71.0705 68.4212C71.7573 68.4212 72.3127 67.8681 72.3127 67.1818C72.3127 66.4955 71.7573 65.945 71.0705 65.945Z" fill="white"/>
<path d="M71.0858 59.7408H61.3276V60.3542H61.8225V63.9993C61.8225 64.5725 62.2896 65.0375 62.8652 65.0375H63.0975C63.6731 65.0375 64.1402 64.5725 64.1402 63.9993C64.1402 64.5725 64.6073 65.0375 65.1829 65.0375H65.4152C65.9909 65.0375 66.4579 64.5725 66.4579 63.9993C66.4579 64.5725 66.925 65.0375 67.5007 65.0375H67.7329C68.3086 65.0375 68.7757 64.5725 68.7757 63.9993C68.7757 64.5725 69.2427 65.0375 69.8184 65.0375H70.0507C70.6263 65.0375 71.0934 64.5725 71.0934 63.9993C71.0934 64.5725 71.5605 65.0375 72.1361 65.0375H72.3684C72.944 65.0375 73.4111 64.5725 73.4111 63.9993C73.4111 64.5725 73.8782 65.0375 74.4538 65.0375H74.6861C75.2618 65.0375 75.7288 64.5725 75.7288 63.9993C75.7288 64.5725 76.1959 65.0375 76.7716 65.0375H77.0038C77.5795 65.0375 78.0466 64.5725 78.0466 63.9993C78.0466 64.5725 78.5137 65.0375 79.0893 65.0375H79.3216C79.8972 65.0375 80.3643 64.5725 80.3643 63.9993V60.3542H80.8592V59.7408H71.101H71.0858Z" fill="#F4CA19"/>
<path d="M63.9129 60.4824H62.0446C62.0244 60.4824 62.0093 60.5 62.0093 60.5176V63.9968C62.0093 64.4795 62.4031 64.8716 62.8879 64.8716H63.0747C63.5595 64.8716 63.9533 64.4795 63.9533 63.9968V60.5176C63.9533 60.4975 63.9382 60.4824 63.918 60.4824H63.9129ZM63.8776 63.9968C63.8776 64.4392 63.5166 64.7987 63.0722 64.7987H62.8854C62.441 64.7987 62.08 64.4392 62.08 63.9968V60.5553H63.8751V63.9968H63.8776Z" fill="white"/>
<path d="M66.2306 60.4824H64.3623C64.3421 60.4824 64.3269 60.5 64.3269 60.5176V63.9968C64.3269 64.4795 64.7208 64.8716 65.2055 64.8716H65.3924C65.8771 64.8716 66.271 64.4795 66.271 63.9968V60.5176C66.271 60.4975 66.2558 60.4824 66.2356 60.4824H66.2306ZM66.1952 63.9968C66.1952 64.4392 65.8342 64.7987 65.3898 64.7987H65.203C64.7586 64.7987 64.3976 64.4392 64.3976 63.9968V60.5553H66.1927V63.9968H66.1952Z" fill="white"/>
<path d="M68.5458 60.4824H66.6774C66.6572 60.4824 66.6421 60.5 66.6421 60.5176V63.9968C66.6421 64.4795 67.0359 64.8716 67.5207 64.8716H67.7075C68.1923 64.8716 68.5861 64.4795 68.5861 63.9968V60.5176C68.5861 60.4975 68.571 60.4824 68.5508 60.4824H68.5458ZM68.5104 63.9968C68.5104 64.4392 68.1494 64.7987 67.705 64.7987H67.5182C67.0738 64.7987 66.7128 64.4392 66.7128 63.9968V60.5553H68.5079V63.9968H68.5104Z" fill="white"/>
<path d="M70.8612 60.4824H68.9929C68.9727 60.4824 68.9575 60.5 68.9575 60.5176V63.9968C68.9575 64.4795 69.3514 64.8716 69.8361 64.8716H70.023C70.5077 64.8716 70.9016 64.4795 70.9016 63.9968V60.5176C70.9016 60.4975 70.8864 60.4824 70.8662 60.4824H70.8612ZM70.8258 63.9968C70.8258 64.4392 70.4648 64.7987 70.0204 64.7987H69.8336C69.3893 64.7987 69.0282 64.4392 69.0282 63.9968V60.5553H70.8233V63.9968H70.8258Z" fill="white"/>
<path d="M80.1268 60.4824H78.2585C78.2383 60.4824 78.2231 60.5 78.2231 60.5176V63.9968C78.2231 64.4795 78.617 64.8716 79.1018 64.8716H79.2886C79.7733 64.8716 80.1672 64.4795 80.1672 63.9968V60.5176C80.1672 60.4975 80.1521 60.4824 80.1319 60.4824H80.1268ZM80.0915 63.9968C80.0915 64.4392 79.7304 64.7987 79.2861 64.7987H79.0992C78.6549 64.7987 78.2938 64.4392 78.2938 63.9968V60.5553H80.0889V63.9968H80.0915Z" fill="white"/>
<path d="M77.8116 60.4824H75.9433C75.9231 60.4824 75.908 60.5 75.908 60.5176V63.9968C75.908 64.4795 76.3018 64.8716 76.7866 64.8716H76.9734C77.4582 64.8716 77.852 64.4795 77.852 63.9968V60.5176C77.852 60.4975 77.8369 60.4824 77.8167 60.4824H77.8116ZM77.7763 63.9968C77.7763 64.4392 77.4152 64.7987 76.9709 64.7987H76.784C76.3397 64.7987 75.9787 64.4392 75.9787 63.9968V60.5553H77.7738V63.9968H77.7763Z" fill="white"/>
<path d="M75.494 60.4824H73.6257C73.6055 60.4824 73.5903 60.5 73.5903 60.5176V63.9968C73.5903 64.4795 73.9842 64.8716 74.469 64.8716H74.6558C75.1405 64.8716 75.5344 64.4795 75.5344 63.9968V60.5176C75.5344 60.4975 75.5192 60.4824 75.499 60.4824H75.494ZM75.4587 63.9968C75.4587 64.4392 75.0976 64.7987 74.6533 64.7987H74.4664C74.0221 64.7987 73.661 64.4392 73.661 63.9968V60.5553H75.4561V63.9968H75.4587Z" fill="white"/>
<path d="M73.1788 60.4824H71.3105C71.2903 60.4824 71.2751 60.5 71.2751 60.5176V63.9968C71.2751 64.4795 71.669 64.8716 72.1538 64.8716H72.3406C72.8253 64.8716 73.2192 64.4795 73.2192 63.9968V60.5176C73.2192 60.4975 73.2041 60.4824 73.1839 60.4824H73.1788ZM73.1435 63.9968C73.1435 64.4392 72.7824 64.7987 72.3381 64.7987H72.1512C71.7069 64.7987 71.3458 64.4392 71.3458 63.9968V60.5553H73.1409V63.9968H73.1435Z" fill="white"/>
<path d="M73.9312 57.3527C73.7671 55.2587 71.0858 53.1093 71.0858 53.1093C71.0858 53.1093 68.4045 55.2587 68.2404 57.3527C68.0763 59.4467 71.0858 59.7409 71.0858 59.7409C71.0858 59.7409 74.0978 59.4467 73.9312 57.3527Z" fill="#F4CA19"/>
<path d="M73.3959 57.687C73.2621 55.9877 71.0857 54.243 71.0857 54.243C71.0857 54.243 68.9069 55.9877 68.7756 57.687C68.6418 59.3864 71.0857 59.6252 71.0857 59.6252C71.0857 59.6252 73.5297 59.3864 73.3959 57.687Z" fill="white"/>
<path d="M73.1383 57.5739C73.0222 56.1033 71.2069 54.6327 71.1311 54.5699L71.0857 54.5322L71.0402 54.5699C70.962 54.6327 69.1492 56.1008 69.0331 57.5739C68.9144 59.0848 71.0579 59.311 71.0806 59.3135H71.0882H71.0958C71.1185 59.3135 73.262 59.0848 73.1434 57.5739H73.1383ZM71.0857 59.1677C70.9544 59.1526 69.0735 58.9138 69.177 57.584C69.278 56.3019 70.8004 54.962 71.0857 54.7207C71.371 54.962 72.8934 56.2994 72.9944 57.584C73.0979 58.9113 71.2195 59.1526 71.0857 59.1677Z" fill="#F2A661"/>
<path d="M71.121 20.0697L78.8948 20.8968L71.0857 22.6439L71.121 20.0697Z" fill="#934A93"/>
<path d="M73.0172 27.2392V26.9275H72.5603V26.6736H73.5298V26.201L72.5249 25.653H71.6286V24.7078H72.232V23.9788L71.6842 23.5791L71.0858 20.0647L70.4874 23.5791L69.9396 23.9788V24.7078H70.543V25.653H69.6467L68.6418 26.201V26.6736H69.6113V26.9275H69.1544V27.2392L65.3142 29.5143L66.0767 30.0045H71.0858H76.0949L76.8574 29.5143L73.0172 27.2392Z" fill="#F2A661"/>
<path d="M65.3142 29.5142H76.8574L76.0949 30.0044H66.0767L65.3142 29.5142Z" fill="#915422"/>
<path d="M69.1543 27.2392H73.0172L71.159 27.566L69.1543 27.2392Z" fill="#915422"/>
<path d="M72.5602 26.6736H69.6113V26.9275H72.5602V26.6736Z" fill="#915422"/>
<path d="M71.6286 24.7078H70.543V25.1276H71.6286V24.7078Z" fill="#915422"/>
<path d="M69.629 25.6229L68.6241 26.1684C68.6241 26.1684 68.6039 26.186 68.6039 26.201V26.6736C68.6039 26.6938 68.6191 26.7088 68.6393 26.7088H69.5709V26.8898H69.1493C69.1291 26.8898 69.1139 26.9049 69.1139 26.925V27.2141L65.2915 29.4791C65.2738 29.4892 65.2687 29.5118 65.2788 29.5294C65.2864 29.5419 65.299 29.547 65.3091 29.547C65.3167 29.547 65.3217 29.547 65.3268 29.5419L69.167 27.2669C69.167 27.2669 69.1846 27.2493 69.1846 27.2367V26.9627H69.6063C69.6265 26.9627 69.6416 26.9477 69.6416 26.9275V26.6736C69.6416 26.6535 69.6265 26.6384 69.6063 26.6384H68.6746V26.2237L69.6618 25.6882C69.6795 25.6782 69.6871 25.6555 69.677 25.6379C69.6669 25.6203 69.6441 25.6128 69.6265 25.6229H69.629Z" fill="#66122C"/>
<path d="M70.543 24.6701H69.9749V23.9964L70.5076 23.6067C70.5076 23.6067 70.5203 23.5916 70.5228 23.5841L71.1212 20.0697C71.1237 20.0496 71.1111 20.032 71.0909 20.027C71.0732 20.0245 71.053 20.037 71.0479 20.0572L70.4521 23.5564L69.9143 23.9486C69.9143 23.9486 69.8992 23.9662 69.8992 23.9788V24.7078C69.8992 24.7279 69.9143 24.743 69.9345 24.743H70.5379C70.5581 24.743 70.5733 24.7279 70.5733 24.7078C70.5733 24.6877 70.5581 24.6726 70.5379 24.6726L70.543 24.6701Z" fill="#66122C"/>
<path d="M64.2766 84.3062L64.0039 84.0322V80.6109V80.548V77.1267L64.2766 76.8552V75.9954L64.5089 74.3564H63.4965H62.4866L62.7163 75.9954V76.8552L62.9915 77.1267V80.548V80.6109V84.0322L62.7163 84.3062V85.166L62.4866 86.8025H63.4965H64.5089L64.2766 85.166V84.3062Z" fill="#F2A661"/>
<path d="M64.004 77.0914H63.0092L62.7391 76.7646V75.8823L62.5219 74.3513C62.5194 74.3312 62.5017 74.3161 62.4815 74.3212C62.4613 74.3237 62.4487 74.3413 62.4512 74.3614L62.6684 75.8873V76.7772C62.6684 76.7772 62.6709 76.7948 62.676 76.7998L62.9562 77.1392V84.0322C62.9562 84.0523 62.9713 84.0674 62.9915 84.0674C63.0117 84.0674 63.0269 84.0498 63.0269 84.0322V77.1643H64.0014C64.0216 77.1643 64.0368 77.1467 64.0368 77.1291C64.0368 77.1115 64.0216 77.0939 64.0014 77.0939L64.004 77.0914Z" fill="white"/>
<path d="M59.8052 84.3062L59.5325 84.0322V80.6108V80.5479V77.1266L59.8052 76.8551V75.9954L60.0375 74.3563H59.025H58.0151L58.2474 75.9954V76.8551L58.5201 77.1266V80.5479V80.6108V84.0322L58.2474 84.3062V85.1659L58.0151 86.8024H59.025H60.0375L59.8052 85.1659V84.3062Z" fill="#F2A661"/>
<path d="M59.5325 77.0914H58.5378L58.2676 76.7646V75.8823L58.0505 74.3513C58.048 74.3312 58.0303 74.3161 58.0101 74.3212C57.9899 74.3237 57.9773 74.3413 57.9798 74.3614L58.1969 75.8873V76.7772C58.1969 76.7772 58.1995 76.7948 58.2045 76.7998L58.4848 77.1392V84.0322C58.4848 84.0523 58.4999 84.0674 58.5201 84.0674C58.5403 84.0674 58.5555 84.0498 58.5555 84.0322V77.1643H59.53C59.5502 77.1643 59.5654 77.1467 59.5654 77.1291C59.5654 77.1115 59.5502 77.0939 59.53 77.0939L59.5325 77.0914Z" fill="white"/>
<path d="M78.097 84.3062L78.3722 84.0322V80.6109V80.548V77.1267L78.097 76.8552V75.9954L77.8647 74.3564H78.8772H79.8896L79.6573 75.9954V76.8552L79.3821 77.1267V80.548V80.6109V84.0322L79.6573 84.3062V85.166L79.8896 86.8025H78.8772H77.8647L78.097 85.166V84.3062Z" fill="#F2A661"/>
<path d="M78.3722 77.0914H79.3669L79.6371 76.7646V75.8823L79.8542 74.3513C79.8567 74.3312 79.8744 74.3161 79.8946 74.3212C79.9148 74.3237 79.9274 74.3413 79.9249 74.3614L79.7078 75.8873V76.7772C79.7078 76.7772 79.7053 76.7948 79.7002 76.7998L79.42 77.1392V84.0322C79.42 84.0523 79.4048 84.0674 79.3846 84.0674C79.3644 84.0674 79.3493 84.0498 79.3493 84.0322V77.1643H78.3747C78.3545 77.1643 78.3394 77.1467 78.3394 77.1291C78.3394 77.1115 78.3545 77.0939 78.3747 77.0939L78.3722 77.0914Z" fill="white"/>
<path d="M82.5685 84.3062L82.8411 84.0322V80.6109V80.548V77.1267L82.5685 76.8552V75.9954L82.3362 74.3564H83.3486H84.3585L84.1288 75.9954V76.8552L83.8536 77.1267V80.548V80.6109V84.0322L84.1288 84.3062V85.166L84.3585 86.8025H83.3486H82.3362L82.5685 85.166V84.3062Z" fill="#F2A661"/>
<path d="M82.8412 77.0914H83.8359L84.1061 76.7646V75.8823L84.3232 74.3513C84.3257 74.3312 84.3434 74.3161 84.3636 74.3212C84.3838 74.3237 84.3964 74.3413 84.3939 74.3614L84.1768 75.8873V76.7772C84.1768 76.7772 84.1742 76.7948 84.1692 76.7998L83.8889 77.1392V84.0322C83.8889 84.0523 83.8738 84.0674 83.8536 84.0674C83.8334 84.0674 83.8183 84.0498 83.8183 84.0322V77.1643H82.8437C82.8235 77.1643 82.8083 77.1467 82.8083 77.1291C82.8083 77.1115 82.8235 77.0939 82.8437 77.0939L82.8412 77.0914Z" fill="white"/>
<path d="M89.7664 83.2654H89.8599V82.9814H89.7664V82.8381H89.6629C89.7134 82.7828 89.7462 82.7099 89.7462 82.6294C89.7462 82.461 89.6074 82.3228 89.4382 82.3228C89.2691 82.3228 89.1302 82.461 89.1302 82.6294C89.1302 82.7099 89.163 82.7828 89.2135 82.8381H89.11V82.9814H87.3023V82.8381H87.1988C87.2493 82.7828 87.2821 82.7099 87.2821 82.6294C87.2821 82.461 87.1432 82.3228 86.9741 82.3228C86.8049 82.3228 86.666 82.461 86.666 82.6294C86.666 82.7099 86.6989 82.7828 86.7494 82.8381H86.6458V82.9814H84.9038V82.8381H84.8002C84.8507 82.7828 84.8836 82.7099 84.8836 82.6294C84.8836 82.461 84.7447 82.3228 84.5755 82.3228C84.4064 82.3228 84.2675 82.461 84.2675 82.6294C84.2675 82.7099 84.3003 82.7828 84.3508 82.8381H84.2473V82.9814H82.4396V82.8381H82.3361C82.3866 82.7828 82.4194 82.7099 82.4194 82.6294C82.4194 82.461 82.2805 82.3228 82.1114 82.3228C81.9422 82.3228 81.8034 82.461 81.8034 82.6294C81.8034 82.7099 81.8362 82.7828 81.8867 82.8381H81.7832V82.9814H80.1446V82.8381H80.0411C80.0916 82.7828 80.1244 82.7099 80.1244 82.6294C80.1244 82.461 79.9855 82.3228 79.8164 82.3228C79.6472 82.3228 79.5084 82.461 79.5084 82.6294C79.5084 82.7099 79.5412 82.7828 79.5917 82.8381H79.4882V82.9814H77.6804V82.8381H77.5769C77.6274 82.7828 77.6602 82.7099 77.6602 82.6294C77.6602 82.461 77.5214 82.3228 77.3522 82.3228C77.1831 82.3228 77.0442 82.461 77.0442 82.6294C77.0442 82.7099 77.077 82.7828 77.1275 82.8381H77.024V82.9814H75.2819V82.8381H75.1784C75.2289 82.7828 75.2617 82.7099 75.2617 82.6294C75.2617 82.461 75.1229 82.3228 74.9537 82.3228C74.7845 82.3228 74.6457 82.461 74.6457 82.6294C74.6457 82.7099 74.6785 82.7828 74.729 82.8381H74.6255V82.9814H72.8178V82.8381H72.7142C72.7647 82.7828 72.7976 82.7099 72.7976 82.6294C72.7976 82.461 72.6587 82.3228 72.4895 82.3228C72.3204 82.3228 72.1815 82.461 72.1815 82.6294C72.1815 82.7099 72.2143 82.7828 72.2648 82.8381H72.1613V82.9814H70.5985V82.8381H70.495C70.5455 82.7828 70.5783 82.7099 70.5783 82.6294C70.5783 82.461 70.4394 82.3228 70.2703 82.3228C70.1011 82.3228 69.9623 82.461 69.9623 82.6294C69.9623 82.7099 69.9951 82.7828 70.0456 82.8381H69.942V82.9814H68.1343V82.8381H68.0308C68.0813 82.7828 68.1141 82.7099 68.1141 82.6294C68.1141 82.461 67.9753 82.3228 67.8061 82.3228C67.6369 82.3228 67.4981 82.461 67.4981 82.6294C67.4981 82.7099 67.5309 82.7828 67.5814 82.8381H67.4779V82.9814H65.7358V82.8381H65.6323C65.6828 82.7828 65.7156 82.7099 65.7156 82.6294C65.7156 82.461 65.5767 82.3228 65.4076 82.3228C65.2384 82.3228 65.0996 82.461 65.0996 82.6294C65.0996 82.7099 65.1324 82.7828 65.1829 82.8381H65.0794V82.9814H63.2716V82.8381H63.1681C63.2186 82.7828 63.2514 82.7099 63.2514 82.6294C63.2514 82.461 63.1126 82.3228 62.9434 82.3228C62.7743 82.3228 62.6354 82.461 62.6354 82.6294C62.6354 82.7099 62.6682 82.7828 62.7187 82.8381H62.6152V82.9814H61.1054V82.8381H61.0019C61.0524 82.7828 61.0852 82.7099 61.0852 82.6294C61.0852 82.461 60.9463 82.3228 60.7772 82.3228C60.608 82.3228 60.4692 82.461 60.4692 82.6294C60.4692 82.7099 60.502 82.7828 60.5525 82.8381H60.449V82.9814H58.6412V82.8381H58.5377C58.5882 82.7828 58.621 82.7099 58.621 82.6294C58.621 82.461 58.4822 82.3228 58.313 82.3228C58.1439 82.3228 58.005 82.461 58.005 82.6294C58.005 82.7099 58.0378 82.7828 58.0883 82.8381H57.9848V82.9814H56.2427V82.8381H56.1392C56.1897 82.7828 56.2225 82.7099 56.2225 82.6294C56.2225 82.461 56.0837 82.3228 55.9145 82.3228C55.7453 82.3228 55.6065 82.461 55.6065 82.6294C55.6065 82.7099 55.6393 82.7828 55.6898 82.8381H55.5863V82.9814H53.7786V82.8381H53.675C53.7255 82.7828 53.7584 82.7099 53.7584 82.6294C53.7584 82.461 53.6195 82.3228 53.4503 82.3228C53.2812 82.3228 53.1423 82.461 53.1423 82.6294C53.1423 82.7099 53.1751 82.7828 53.2256 82.8381H53.1221V82.9814H53.054V83.2654H53.1221V85.6561L53.309 85.7642C53.309 85.7642 53.1221 85.9201 53.1221 86.2946C53.1221 86.2946 53.0918 86.7924 53.309 86.7924H53.054V87.9839H89.8674V86.7924H89.5872C89.8068 86.7924 89.774 86.2946 89.774 86.2946C89.774 85.9201 89.5872 85.7642 89.5872 85.7642L89.774 85.6561V83.2654H89.7664ZM53.5816 86.7924C53.8013 86.7924 53.7685 86.2946 53.7685 86.2946C53.7685 85.9201 53.5816 85.7642 53.5816 85.7642L53.7685 85.6561V83.2654H55.5762V85.6561L55.763 85.7642C55.763 85.7642 55.5762 85.9201 55.5762 86.2946C55.5762 86.2946 55.5459 86.7924 55.763 86.7924H53.5791H53.5816ZM56.0458 86.7924C56.2654 86.7924 56.2326 86.2946 56.2326 86.2946C56.2326 85.9201 56.0458 85.7642 56.0458 85.7642L56.2326 85.6561V83.2654H57.9747V85.6561L58.1615 85.7642C58.1615 85.7642 57.9747 85.9201 57.9747 86.2946C57.9747 86.2946 57.9444 86.7924 58.1615 86.7924H56.0433H56.0458ZM58.4443 86.7924C58.664 86.7924 58.6311 86.2946 58.6311 86.2946C58.6311 85.9201 58.4443 85.7642 58.4443 85.7642L58.6311 85.6561V83.2654H60.4389V85.6561L60.6257 85.7642C60.6257 85.7642 60.4389 85.9201 60.4389 86.2946C60.4389 86.2946 60.4086 86.7924 60.6257 86.7924H58.4418H58.4443ZM60.9085 86.7924C61.1281 86.7924 61.0953 86.2946 61.0953 86.2946C61.0953 85.9201 60.9085 85.7642 60.9085 85.7642L61.0953 85.6561V83.2654H62.6051V85.6561L62.7919 85.7642C62.7919 85.7642 62.6051 85.9201 62.6051 86.2946C62.6051 86.2946 62.5748 86.7924 62.7919 86.7924H60.9059H60.9085ZM63.0747 86.7924C63.2944 86.7924 63.2615 86.2946 63.2615 86.2946C63.2615 85.9201 63.0747 85.7642 63.0747 85.7642L63.2615 85.6561V83.2654H65.0693V85.6561L65.2561 85.7642C65.2561 85.7642 65.0693 85.9201 65.0693 86.2946C65.0693 86.2946 65.039 86.7924 65.2561 86.7924H63.0722H63.0747ZM65.5389 86.7924C65.7585 86.7924 65.7257 86.2946 65.7257 86.2946C65.7257 85.9201 65.5389 85.7642 65.5389 85.7642L65.7257 85.6561V83.2654H67.4678V85.6561L67.6546 85.7642C67.6546 85.7642 67.4678 85.9201 67.4678 86.2946C67.4678 86.2946 67.4375 86.7924 67.6546 86.7924H65.5364H65.5389ZM67.9374 86.7924C68.1571 86.7924 68.1242 86.2946 68.1242 86.2946C68.1242 85.9201 67.9374 85.7642 67.9374 85.7642L68.1242 85.6561V83.2654H69.932V85.6561L70.1188 85.7642C70.1188 85.7642 69.932 85.9201 69.932 86.2946C69.932 86.2946 69.9017 86.7924 70.1188 86.7924H67.9349H67.9374ZM70.4016 86.7924C70.6212 86.7924 70.5884 86.2946 70.5884 86.2946C70.5884 85.9201 70.4016 85.7642 70.4016 85.7642L70.5884 85.6561V83.2654H72.1512V85.6561L72.338 85.7642C72.338 85.7642 72.1512 85.9201 72.1512 86.2946C72.1512 86.2946 72.1209 86.7924 72.338 86.7924H70.399H70.4016ZM72.6208 86.7924C72.8405 86.7924 72.8076 86.2946 72.8076 86.2946C72.8076 85.9201 72.6208 85.7642 72.6208 85.7642L72.8076 85.6561V83.2654H74.6154V85.6561L74.8022 85.7642C74.8022 85.7642 74.6154 85.9201 74.6154 86.2946C74.6154 86.2946 74.5851 86.7924 74.8022 86.7924H72.6183H72.6208ZM75.085 86.7924C75.3046 86.7924 75.2718 86.2946 75.2718 86.2946C75.2718 85.9201 75.085 85.7642 75.085 85.7642L75.2718 85.6561V83.2654H77.0139V85.6561L77.2007 85.7642C77.2007 85.7642 77.0139 85.9201 77.0139 86.2946C77.0139 86.2946 76.9836 86.7924 77.2007 86.7924H75.0825H75.085ZM77.4835 86.7924C77.7032 86.7924 77.6703 86.2946 77.6703 86.2946C77.6703 85.9201 77.4835 85.7642 77.4835 85.7642L77.6703 85.6561V83.2654H79.4781V85.6561L79.6649 85.7642C79.6649 85.7642 79.4781 85.9201 79.4781 86.2946C79.4781 86.2946 79.4478 86.7924 79.6649 86.7924H77.481H77.4835ZM79.9477 86.7924C80.1673 86.7924 80.1345 86.2946 80.1345 86.2946C80.1345 85.9201 79.9477 85.7642 79.9477 85.7642L80.1345 85.6561V83.2654H81.7731V85.6561L81.9599 85.7642C81.9599 85.7642 81.7731 85.9201 81.7731 86.2946C81.7731 86.2946 81.7428 86.7924 81.9599 86.7924H79.9477ZM82.2427 86.7924C82.4623 86.7924 82.4295 86.2946 82.4295 86.2946C82.4295 85.9201 82.2427 85.7642 82.2427 85.7642L82.4295 85.6561V83.2654H84.2372V85.6561L84.4241 85.7642C84.4241 85.7642 84.2372 85.9201 84.2372 86.2946C84.2372 86.2946 84.2069 86.7924 84.4241 86.7924H82.2401H82.2427ZM84.7068 86.7924C84.9265 86.7924 84.8937 86.2946 84.8937 86.2946C84.8937 85.9201 84.7068 85.7642 84.7068 85.7642L84.8937 85.6561V83.2654H86.6357V85.6561L86.8226 85.7642C86.8226 85.7642 86.6357 85.9201 86.6357 86.2946C86.6357 86.2946 86.6054 86.7924 86.8226 86.7924H84.7043H84.7068ZM87.1054 86.7924C87.325 86.7924 87.2922 86.2946 87.2922 86.2946C87.2922 85.9201 87.1054 85.7642 87.1054 85.7642L87.2922 85.6561V83.2654H89.0999V85.6561L89.2867 85.7642C89.2867 85.7642 89.0999 85.9201 89.0999 86.2946C89.0999 86.2946 89.0696 86.7924 89.2867 86.7924H87.1028H87.1054Z" fill="#934A93"/>
<path d="M21.9017 74.2548H21.8714H9.82324V89.9362H21.8714H21.9017H33.9498V74.2548H21.9017Z" fill="#3F0814"/>
<path d="M29.6931 74.1819H14.3123V89.348H29.6931V74.1819Z" fill="#490A1B"/>
<path d="M29.8976 37.3539C28.1429 31.2352 21.9017 29.7797 21.9017 29.7797C21.9017 29.7797 15.6605 31.2352 13.9058 37.3539C12.1511 43.4726 6.00583 67.1657 7.76053 74.2522H36.0429C37.7976 67.1632 31.6548 43.4701 29.8976 37.3539Z" fill="#94152A"/>
<path d="M29.8975 37.3539C28.1428 31.2352 21.9016 29.7797 21.9016 29.7797V74.2522H36.0428C37.7975 67.1632 31.6547 43.4701 29.8975 37.3539Z" fill="#760F20"/>
<path d="M19.3972 74.1818H7.81871C7.50564 72.8671 7.44 70.9013 7.62683 68.3371C7.80356 65.9087 8.20753 62.9173 8.82609 59.4406C8.83367 59.4004 8.80589 59.3627 8.76802 59.3551C8.72763 59.3476 8.68975 59.3752 8.68218 59.4129C8.06109 62.8921 7.65713 65.8911 7.4804 68.3246C7.29104 70.939 7.35921 72.94 7.68995 74.2698C7.69752 74.3025 7.72782 74.3251 7.76064 74.3251H19.3972C19.4376 74.3251 19.4705 74.2924 19.4705 74.2522C19.4705 74.212 19.4376 74.1793 19.3972 74.1793V74.1818Z" fill="#723E14"/>
<path d="M21.8842 29.7093C21.8211 29.7244 15.5799 31.2452 13.8327 37.3338C13.8226 37.3715 13.8453 37.4117 13.8832 37.4243C13.8908 37.4243 13.8958 37.4268 13.9034 37.4268C13.9362 37.4268 13.964 37.4067 13.9741 37.374C15.696 31.3709 21.8564 29.8651 21.917 29.85C21.9574 29.84 21.9801 29.8023 21.9725 29.7621C21.9624 29.7218 21.9246 29.6992 21.8842 29.7068V29.7093Z" fill="#723E14"/>
<path d="M35.2678 60.2526C34.2604 54.3978 32.8137 48.2539 31.7785 44.1287C31.7684 44.0885 31.728 44.0659 31.6902 44.0759C31.6498 44.086 31.6271 44.1262 31.6372 44.1639C32.6723 48.2841 34.119 54.4255 35.1238 60.2752C36.2953 67.0802 36.5806 71.7761 35.9722 74.2346C35.9621 74.2748 35.9873 74.3126 36.0252 74.3226C36.0302 74.3226 36.0378 74.3226 36.0429 74.3226C36.0757 74.3226 36.106 74.3 36.1135 74.2673C36.7271 71.7912 36.4418 67.0752 35.2678 60.2501V60.2526Z" fill="#723E14"/>
<path d="M18.4278 32.5474C18.4278 32.5474 10.1996 47.7437 9.90674 74.2523H11.5655C11.5655 74.2523 10.1769 57.2586 18.4278 32.5474Z" fill="#AB3253"/>
<path d="M19.3973 32.5474C19.3973 32.5474 13.2091 49.2017 12.1411 74.2523H13.7923C13.7923 74.2523 14.8451 48.8121 19.3947 32.5474H19.3973Z" fill="#AB3253"/>
<path d="M25.9895 32.5474C25.9895 32.5474 34.2177 47.7437 34.5106 74.2523H32.8518C32.8518 74.2523 34.2404 57.2586 25.9895 32.5474Z" fill="#AB3253"/>
<path d="M25.02 32.5474C25.02 32.5474 31.2082 49.2017 32.2762 74.2523H30.625C30.625 74.2523 29.5722 48.8121 25.0225 32.5474H25.02Z" fill="#AB3253"/>
<path d="M16.514 76.4393H7.2002V76.8994H16.514V76.4393Z" fill="#F7B137"/>
<path d="M36.6034 76.4393H27.2896V76.8994H36.6034V76.4393Z" fill="#F7B137"/>
<path d="M36.871 76.1728L31.5312 64.3024H12.2698L6.92993 76.1728H16.5114C17.6829 71.5122 21.8992 71.8767 21.8992 71.8767C21.8992 71.8767 26.1181 71.5122 27.287 76.1728H36.8685H36.871Z" fill="#F7B137"/>
<path d="M16.5114 76.1729H7.44751V76.4393H16.5114V76.1729Z" fill="#DB7022"/>
<path d="M27.2896 76.4393H36.3535V76.1729H27.2896V76.4393Z" fill="#DB7022"/>
<path d="M15.186 71.8213L14.0347 72.2763L14.7214 72.7137L15.4081 73.1512L15.3425 71.9194C15.3425 71.9194 17.6249 71.4996 17.2512 68.7745C14.6078 69.579 15.1834 71.8188 15.1834 71.8188L15.186 71.8213Z" fill="white"/>
<path d="M16.0746 75.3939H8.30843L12.2773 66.5225C12.2975 66.4772 12.2773 66.427 12.2319 66.4068C12.1865 66.3867 12.136 66.4068 12.1158 66.4521L8.09383 75.4467C8.0812 75.4743 8.08373 75.5045 8.1014 75.5296C8.11655 75.5547 8.14432 75.5698 8.17462 75.5698H16.0746C16.1226 75.5698 16.1629 75.5296 16.1629 75.4819C16.1629 75.4341 16.1226 75.3939 16.0746 75.3939Z" fill="white"/>
<path d="M28.3904 73.1537L29.0771 72.7163L29.7638 72.2789L28.6125 71.8239C28.6125 71.8239 29.1857 69.584 26.5448 68.7796C26.1711 71.5046 28.4535 71.9244 28.4535 71.9244L28.3878 73.1562L28.3904 73.1537Z" fill="white"/>
<path d="M35.707 75.4438L31.685 66.4492C31.6648 66.404 31.6118 66.3864 31.5689 66.404C31.5235 66.4241 31.5058 66.4744 31.5235 66.5196L35.4924 75.391H27.7287C27.6808 75.391 27.6404 75.4312 27.6404 75.479C27.6404 75.5268 27.6808 75.567 27.7287 75.567H35.6287C35.659 75.567 35.6868 75.5519 35.7019 75.5268C35.7171 75.5016 35.7196 75.4715 35.7095 75.4438H35.707Z" fill="white"/>
<path d="M21.8865 68.488C21.1997 68.488 20.6443 69.041 20.6443 69.7248C20.6443 70.4086 21.1997 70.9641 21.8865 70.9641C22.5732 70.9641 23.1286 70.4111 23.1286 69.7248C23.1286 69.0385 22.5732 68.488 21.8865 68.488Z" fill="white"/>
<path d="M21.9017 62.2838H12.1436V62.8972H12.6384V66.5423C12.6384 67.1154 13.1055 67.5805 13.6811 67.5805H13.9134C14.4891 67.5805 14.9561 67.1154 14.9561 66.5423C14.9561 67.1154 15.4232 67.5805 15.9989 67.5805H16.2311C16.8068 67.5805 17.2739 67.1154 17.2739 66.5423C17.2739 67.1154 17.7409 67.5805 18.3166 67.5805H18.5489C19.1245 67.5805 19.5916 67.1154 19.5916 66.5423C19.5916 67.1154 20.0587 67.5805 20.6343 67.5805H20.8666C21.4422 67.5805 21.9093 67.1154 21.9093 66.5423C21.9093 67.1154 22.3764 67.5805 22.952 67.5805H23.1843C23.76 67.5805 24.227 67.1154 24.227 66.5423C24.227 67.1154 24.6941 67.5805 25.2698 67.5805H25.502C26.0777 67.5805 26.5448 67.1154 26.5448 66.5423C26.5448 67.1154 27.0118 67.5805 27.5875 67.5805H27.8198C28.3954 67.5805 28.8625 67.1154 28.8625 66.5423C28.8625 67.1154 29.3296 67.5805 29.9052 67.5805H30.1375C30.7131 67.5805 31.1802 67.1154 31.1802 66.5423V62.8972H31.6751V62.2838H21.9169H21.9017Z" fill="#DE6E24"/>
<path d="M14.7289 63.0255H12.8605C12.8403 63.0255 12.8252 63.0431 12.8252 63.0606V66.5398C12.8252 67.0225 13.2191 67.4146 13.7038 67.4146H13.8906C14.3754 67.4146 14.7693 67.0225 14.7693 66.5398V63.0606C14.7693 63.0405 14.7541 63.0255 14.7339 63.0255H14.7289ZM14.6935 66.5398C14.6935 66.9823 14.3325 67.3417 13.8881 67.3417H13.7013C13.2569 67.3417 12.8959 66.9823 12.8959 66.5398V63.0984H14.691V66.5398H14.6935Z" fill="white"/>
<path d="M17.044 63.0255H15.1757C15.1555 63.0255 15.1404 63.0431 15.1404 63.0606V66.5398C15.1404 67.0225 15.5342 67.4146 16.019 67.4146H16.2058C16.6906 67.4146 17.0844 67.0225 17.0844 66.5398V63.0606C17.0844 63.0405 17.0693 63.0255 17.0491 63.0255H17.044ZM17.0087 66.5398C17.0087 66.9823 16.6477 67.3417 16.2033 67.3417H16.0165C15.5721 67.3417 15.2111 66.9823 15.2111 66.5398V63.0984H17.0062V66.5398H17.0087Z" fill="white"/>
<path d="M19.3617 63.0255H17.4934C17.4732 63.0255 17.458 63.0431 17.458 63.0606V66.5398C17.458 67.0225 17.8519 67.4146 18.3366 67.4146H18.5235C19.0082 67.4146 19.4021 67.0225 19.4021 66.5398V63.0606C19.4021 63.0405 19.3869 63.0255 19.3667 63.0255H19.3617ZM19.3263 66.5398C19.3263 66.9823 18.9653 67.3417 18.5209 67.3417H18.3341C17.8897 67.3417 17.5287 66.9823 17.5287 66.5398V63.0984H19.3238V66.5398H19.3263Z" fill="white"/>
<path d="M21.6771 63.0255H19.8088C19.7886 63.0255 19.7734 63.0431 19.7734 63.0606V66.5398C19.7734 67.0225 20.1673 67.4146 20.6521 67.4146H20.8389C21.3236 67.4146 21.7175 67.0225 21.7175 66.5398V63.0606C21.7175 63.0405 21.7024 63.0255 21.6822 63.0255H21.6771ZM21.6418 66.5398C21.6418 66.9823 21.2807 67.3417 20.8364 67.3417H20.6495C20.2052 67.3417 19.8441 66.9823 19.8441 66.5398V63.0984H21.6392V66.5398H21.6418Z" fill="white"/>
<path d="M30.9427 63.0255H29.0744C29.0542 63.0255 29.0391 63.0431 29.0391 63.0606V66.5398C29.0391 67.0225 29.4329 67.4146 29.9177 67.4146H30.1045C30.5893 67.4146 30.9831 67.0225 30.9831 66.5398V63.0606C30.9831 63.0405 30.968 63.0255 30.9478 63.0255H30.9427ZM30.9074 66.5398C30.9074 66.9823 30.5463 67.3417 30.102 67.3417H29.9152C29.4708 67.3417 29.1098 66.9823 29.1098 66.5398V63.0984H30.9049V66.5398H30.9074Z" fill="white"/>
<path d="M28.6251 63.0255H26.7568C26.7366 63.0255 26.7214 63.0431 26.7214 63.0606V66.5398C26.7214 67.0225 27.1153 67.4146 27.6 67.4146H27.7869C28.2716 67.4146 28.6655 67.0225 28.6655 66.5398V63.0606C28.6655 63.0405 28.6503 63.0255 28.6302 63.0255H28.6251ZM28.5898 66.5398C28.5898 66.9823 28.2287 67.3417 27.7844 67.3417H27.5975C27.1532 67.3417 26.7921 66.9823 26.7921 66.5398V63.0984H28.5872V66.5398H28.5898Z" fill="white"/>
<path d="M26.3099 63.0255H24.4416C24.4214 63.0255 24.4062 63.0431 24.4062 63.0606V66.5398C24.4062 67.0225 24.8001 67.4146 25.2849 67.4146H25.4717C25.9565 67.4146 26.3503 67.0225 26.3503 66.5398V63.0606C26.3503 63.0405 26.3352 63.0255 26.315 63.0255H26.3099ZM26.2746 66.5398C26.2746 66.9823 25.9135 67.3417 25.4692 67.3417H25.2823C24.838 67.3417 24.4769 66.9823 24.4769 66.5398V63.0984H26.272V66.5398H26.2746Z" fill="white"/>
<path d="M23.9947 63.0255H22.1264C22.1062 63.0255 22.0911 63.0431 22.0911 63.0606V66.5398C22.0911 67.0225 22.4849 67.4146 22.9697 67.4146H23.1565C23.6413 67.4146 24.0351 67.0225 24.0351 66.5398V63.0606C24.0351 63.0405 24.02 63.0255 23.9998 63.0255H23.9947ZM23.9594 66.5398C23.9594 66.9823 23.5983 67.3417 23.154 67.3417H22.9672C22.5228 67.3417 22.1618 66.9823 22.1618 66.5398V63.0984H23.9569V66.5398H23.9594Z" fill="white"/>
<path d="M24.7471 59.8957C24.583 57.8016 21.9017 55.6523 21.9017 55.6523C21.9017 55.6523 19.2204 57.8016 19.0563 59.8957C18.8922 61.9897 21.9017 62.2838 21.9017 62.2838C21.9017 62.2838 24.9137 61.9897 24.7471 59.8957Z" fill="#F7B137"/>
<path d="M24.2118 60.23C24.078 58.5306 21.9016 56.786 21.9016 56.786C21.9016 56.786 19.7228 58.5306 19.5915 60.23C19.4577 61.9294 21.9016 62.1682 21.9016 62.1682C21.9016 62.1682 24.3456 61.9294 24.2118 60.23Z" fill="white"/>
<path d="M23.9542 60.1169C23.8381 58.6463 22.0228 57.1757 21.9471 57.1128L21.9016 57.0751L21.8562 57.1128C21.7779 57.1757 19.9651 58.6438 19.849 60.1169C19.7303 61.6277 21.8738 61.854 21.8966 61.8565H21.9041H21.9117C21.9344 61.8565 24.078 61.6277 23.9593 60.1169H23.9542ZM21.9016 61.7107C21.7703 61.6956 19.8894 61.4568 19.9929 60.127C20.0939 58.8449 21.6163 57.505 21.9016 57.2637C22.1869 57.505 23.7093 58.8424 23.8103 60.127C23.9138 61.4543 22.0354 61.6956 21.9016 61.7107Z" fill="#F2A661"/>
<path d="M21.937 22.6127L29.7107 23.4397L21.9016 25.1869L21.937 22.6127Z" fill="#AB3253"/>
<path d="M23.8332 29.7822V29.4705H23.3763V29.2166H24.3458V28.744L23.3384 28.196H22.4446V27.2508H23.048V26.5217L22.4976 26.122L21.9018 22.6077L21.3034 26.122L20.7556 26.5217V27.2508H21.359V28.196H20.4627L19.4578 28.744V29.2166H20.4248V29.4705H19.9678V29.7822L16.1277 32.0572L16.8902 32.5474H21.9018H26.9109L27.6734 32.0572L23.8332 29.7822Z" fill="#F7B137"/>
<path d="M16.1277 32.0572H27.6734L26.9109 32.5474H16.8902L16.1277 32.0572Z" fill="#DB7022"/>
<path d="M19.9678 29.7822H23.8332L21.975 30.109L19.9678 29.7822Z" fill="#DB7022"/>
<path d="M23.3737 29.2166H20.4248V29.4705H23.3737V29.2166Z" fill="#DB7022"/>
<path d="M22.4445 27.2507H21.3589V27.6705H22.4445V27.2507Z" fill="#DB7022"/>
<path d="M20.4449 28.1658L19.44 28.7113C19.44 28.7113 19.4199 28.7289 19.4199 28.744V29.2166C19.4199 29.2367 19.435 29.2518 19.4552 29.2518H20.3868V29.4328H19.9652C19.945 29.4328 19.9299 29.4479 19.9299 29.468V29.7571L16.1074 32.0221C16.0897 32.0321 16.0846 32.0548 16.0947 32.0723C16.1023 32.0849 16.1149 32.0899 16.125 32.0899C16.1326 32.0899 16.1377 32.0899 16.1427 32.0849L19.9829 29.8099C19.9829 29.8099 20.0005 29.7923 20.0005 29.7797V29.5057H20.4222C20.4424 29.5057 20.4575 29.4906 20.4575 29.4705V29.2166C20.4575 29.1965 20.4424 29.1814 20.4222 29.1814H19.4905V28.7666L20.4777 28.2312C20.4954 28.2211 20.503 28.1985 20.4929 28.1809C20.4828 28.1633 20.4601 28.1558 20.4424 28.1658H20.4449Z" fill="#66122C"/>
<path d="M21.3589 27.213H20.7908V26.5393L21.3236 26.1497C21.3236 26.1497 21.3362 26.1346 21.3387 26.1271L21.9371 22.6127C21.9396 22.5926 21.927 22.575 21.9068 22.57C21.8891 22.5674 21.8689 22.58 21.8639 22.6001L21.268 26.0994L20.7302 26.4916C20.7302 26.4916 20.7151 26.5092 20.7151 26.5217V27.2508C20.7151 27.2709 20.7302 27.2859 20.7504 27.2859H21.3539C21.374 27.2859 21.3892 27.2709 21.3892 27.2508C21.3892 27.2306 21.374 27.2156 21.3539 27.2156L21.3589 27.213Z" fill="#66122C"/>
<path d="M15.0926 86.8492L14.8174 86.5752V83.1539V83.091V79.6697L15.0926 79.3982V78.5384L15.3249 76.8994H14.3125H13.3L13.5323 78.5384V79.3982L13.8075 79.6697V83.091V83.1539V86.5752L13.5323 86.8492V87.709L13.3 89.3455H14.3125H15.3249L15.0926 87.709V86.8492Z" fill="#F7B137"/>
<path d="M14.8175 79.6345H13.8227L13.5525 79.3077V78.4253L13.3354 76.8944C13.3329 76.8742 13.3152 76.8592 13.295 76.8642C13.2748 76.8667 13.2622 76.8843 13.2647 76.9044L13.4819 78.4303V79.3202C13.4819 79.3202 13.4844 79.3378 13.4894 79.3429L13.7697 79.6822V86.5752C13.7697 86.5953 13.7848 86.6104 13.805 86.6104C13.8252 86.6104 13.8404 86.5928 13.8404 86.5752V79.7074H14.8149C14.8351 79.7074 14.8503 79.6898 14.8503 79.6722C14.8503 79.6546 14.8351 79.637 14.8149 79.637L14.8175 79.6345Z" fill="white"/>
<path d="M10.6212 86.8492L10.346 86.5752V83.1538V83.091V79.6696L10.6212 79.3981V78.5384L10.8535 76.8994H9.84104H8.82861L9.06089 78.5384V79.3981L9.33609 79.6696V83.091V83.1538V86.5752L9.06089 86.8492V87.7089L8.82861 89.3454H9.84104H10.8535L10.6212 87.7089V86.8492Z" fill="#F7B137"/>
<path d="M10.346 79.6345H9.35126L9.08111 79.3077V78.4253L8.86398 76.8944C8.86146 76.8742 8.84378 76.8592 8.82359 76.8642C8.80339 76.8667 8.79076 76.8843 8.79329 76.9044L9.01042 78.4303V79.3202C9.01042 79.3202 9.01294 79.3378 9.01799 79.3429L9.29824 79.6822V86.5752C9.29824 86.5953 9.31339 86.6104 9.33359 86.6104C9.35378 86.6104 9.36893 86.5928 9.36893 86.5752V79.7074H10.3435C10.3637 79.7074 10.3788 79.6898 10.3788 79.6722C10.3788 79.6546 10.3637 79.637 10.3435 79.637L10.346 79.6345Z" fill="white"/>
<path d="M28.9132 86.8492L29.1859 86.5752V83.1538V83.091V79.6696L28.9132 79.3981V78.5384L28.6809 76.8994H29.6933H30.7032L30.471 78.5384V79.3981L30.1983 79.6696V83.091V83.1538V86.5752L30.471 86.8492V87.7089L30.7032 89.3454H29.6933H28.6809L28.9132 87.7089V86.8492Z" fill="#F7B137"/>
<path d="M29.1859 79.6345H30.1807L30.4508 79.3077V78.4253L30.6679 76.8944C30.6705 76.8742 30.6881 76.8592 30.7083 76.8642C30.7285 76.8667 30.7411 76.8843 30.7386 76.9044L30.5215 78.4303V79.3202C30.5215 79.3202 30.519 79.3378 30.5139 79.3429L30.2337 79.6822V86.5752C30.2337 86.5953 30.2185 86.6104 30.1983 86.6104C30.1781 86.6104 30.163 86.5928 30.163 86.5752V79.7074H29.1884C29.1682 79.7074 29.1531 79.6898 29.1531 79.6722C29.1531 79.6546 29.1682 79.637 29.1884 79.637L29.1859 79.6345Z" fill="white"/>
<path d="M33.3819 86.8492L33.6571 86.5752V83.1538V83.091V79.6696L33.3819 79.3981V78.5384L33.1521 76.8994H34.162H35.1744L34.9422 78.5384V79.3981L34.6695 79.6696V83.091V83.1538V86.5752L34.9422 86.8492V87.7089L35.1744 89.3454H34.162H33.1521L33.3819 87.7089V86.8492Z" fill="#F7B137"/>
<path d="M33.6571 79.6345H34.6518L34.922 79.3077V78.4253L35.1391 76.8944C35.1416 76.8742 35.1593 76.8592 35.1795 76.8642C35.1997 76.8667 35.2123 76.8843 35.2098 76.9044L34.9927 78.4303V79.3202C34.9927 79.3202 34.9902 79.3378 34.9851 79.3429L34.7049 79.6822V86.5752C34.7049 86.5953 34.6897 86.6104 34.6695 86.6104C34.6493 86.6104 34.6342 86.5928 34.6342 86.5752V79.7074H33.6596C33.6394 79.7074 33.6243 79.6898 33.6243 79.6722C33.6243 79.6546 33.6394 79.637 33.6596 79.637L33.6571 79.6345Z" fill="white"/>
<path d="M40.5824 85.8084H40.6759V85.5244H40.5824V85.3811H40.4789C40.5294 85.3258 40.5622 85.2529 40.5622 85.1724C40.5622 85.004 40.4234 84.8657 40.2542 84.8657C40.0851 84.8657 39.9462 85.004 39.9462 85.1724C39.9462 85.2529 39.979 85.3258 40.0295 85.3811H39.926V85.5244H38.1183V85.3811H38.0148C38.0653 85.3258 38.0981 85.2529 38.0981 85.1724C38.0981 85.004 37.9592 84.8657 37.7901 84.8657C37.6209 84.8657 37.482 85.004 37.482 85.1724C37.482 85.2529 37.5149 85.3258 37.5654 85.3811H37.4618V85.5244H35.7198V85.3811H35.6163C35.6667 85.3258 35.6996 85.2529 35.6996 85.1724C35.6996 85.004 35.5607 84.8657 35.3915 84.8657C35.2224 84.8657 35.0835 85.004 35.0835 85.1724C35.0835 85.2529 35.1163 85.3258 35.1668 85.3811H35.0633V85.5244H33.2556V85.3811H33.1521C33.2026 85.3258 33.2354 85.2529 33.2354 85.1724C33.2354 85.004 33.0965 84.8657 32.9274 84.8657C32.7582 84.8657 32.6194 85.004 32.6194 85.1724C32.6194 85.2529 32.6522 85.3258 32.7027 85.3811H32.5992V85.5244H30.9606V85.3811H30.8571C30.9076 85.3258 30.9404 85.2529 30.9404 85.1724C30.9404 85.004 30.8015 84.8657 30.6324 84.8657C30.4632 84.8657 30.3244 85.004 30.3244 85.1724C30.3244 85.2529 30.3572 85.3258 30.4077 85.3811H30.3042V85.5244H28.4964V85.3811H28.3929C28.4434 85.3258 28.4762 85.2529 28.4762 85.1724C28.4762 85.004 28.3374 84.8657 28.1682 84.8657C27.9991 84.8657 27.8602 85.004 27.8602 85.1724C27.8602 85.2529 27.893 85.3258 27.9435 85.3811H27.84V85.5244H26.0979V85.3811H25.9944C26.0449 85.3258 26.0777 85.2529 26.0777 85.1724C26.0777 85.004 25.9389 84.8657 25.7697 84.8657C25.6005 84.8657 25.4617 85.004 25.4617 85.1724C25.4617 85.2529 25.4945 85.3258 25.545 85.3811H25.4415V85.5244H23.6338V85.3811H23.5302C23.5807 85.3258 23.6136 85.2529 23.6136 85.1724C23.6136 85.004 23.4747 84.8657 23.3055 84.8657C23.1364 84.8657 22.9975 85.004 22.9975 85.1724C22.9975 85.2529 23.0303 85.3258 23.0808 85.3811H22.9773V85.5244H21.4145V85.3811H21.311C21.3615 85.3258 21.3943 85.2529 21.3943 85.1724C21.3943 85.004 21.2554 84.8657 21.0863 84.8657C20.9171 84.8657 20.7783 85.004 20.7783 85.1724C20.7783 85.2529 20.8111 85.3258 20.8616 85.3811H20.7581V85.5244H18.9503V85.3811H18.8468C18.8973 85.3258 18.9301 85.2529 18.9301 85.1724C18.9301 85.004 18.7913 84.8657 18.6221 84.8657C18.453 84.8657 18.3141 85.004 18.3141 85.1724C18.3141 85.2529 18.3469 85.3258 18.3974 85.3811H18.2939V85.5244H16.5518V85.3811H16.4483C16.4988 85.3258 16.5316 85.2529 16.5316 85.1724C16.5316 85.004 16.3928 84.8657 16.2236 84.8657C16.0544 84.8657 15.9156 85.004 15.9156 85.1724C15.9156 85.2529 15.9484 85.3258 15.9989 85.3811H15.8954V85.5244H14.0877V85.3811H13.9841C14.0346 85.3258 14.0675 85.2529 14.0675 85.1724C14.0675 85.004 13.9286 84.8657 13.7594 84.8657C13.5903 84.8657 13.4514 85.004 13.4514 85.1724C13.4514 85.2529 13.4842 85.3258 13.5347 85.3811H13.4312V85.5244H11.9214V85.3811H11.8179C11.8684 85.3258 11.9012 85.2529 11.9012 85.1724C11.9012 85.004 11.7624 84.8657 11.5932 84.8657C11.424 84.8657 11.2852 85.004 11.2852 85.1724C11.2852 85.2529 11.318 85.3258 11.3685 85.3811H11.265V85.5244H9.45725V85.3811H9.35373C9.40423 85.3258 9.43705 85.2529 9.43705 85.1724C9.43705 85.004 9.29819 84.8657 9.12903 84.8657C8.95987 84.8657 8.82101 85.004 8.82101 85.1724C8.82101 85.2529 8.85383 85.3258 8.90433 85.3811H8.80081V85.5244H7.05873V85.3811H6.95521C7.00571 85.3258 7.03853 85.2529 7.03853 85.1724C7.03853 85.004 6.89967 84.8657 6.73051 84.8657C6.56135 84.8657 6.42249 85.004 6.42249 85.1724C6.42249 85.2529 6.45531 85.3258 6.50581 85.3811H6.40229V85.5244H4.58447V85.3811H4.48095C4.53145 85.3258 4.56427 85.2529 4.56427 85.1724C4.56427 85.004 4.42541 84.8657 4.25625 84.8657C4.08709 84.8657 3.94823 85.004 3.94823 85.1724C3.94823 85.2529 3.98105 85.3258 4.03155 85.3811H3.92803V85.5244H3.85986V85.8084H3.92803V88.1991L4.11486 88.3072C4.11486 88.3072 3.92803 88.463 3.92803 88.8376C3.92803 88.8376 3.89773 89.3354 4.11486 89.3354H3.85986V90.5269H40.6733V89.3354H40.3931C40.6127 89.3354 40.5799 88.8376 40.5799 88.8376C40.5799 88.463 40.3931 88.3072 40.3931 88.3072L40.5799 88.1991V85.8084H40.5824ZM4.39511 89.3328C4.61477 89.3328 4.58194 88.8351 4.58194 88.8351C4.58194 88.4605 4.39511 88.3047 4.39511 88.3047L4.58194 88.1966V85.8059H6.38967V88.1966L6.5765 88.3047C6.5765 88.3047 6.38967 88.4605 6.38967 88.8351C6.38967 88.8351 6.35937 89.3328 6.5765 89.3328H4.39511ZM6.85927 89.3328C7.07893 89.3328 7.04611 88.8351 7.04611 88.8351C7.04611 88.4605 6.85927 88.3047 6.85927 88.3047L7.04611 88.1966V85.8059H8.78819V88.1966L8.97502 88.3047C8.97502 88.3047 8.78819 88.4605 8.78819 88.8351C8.78819 88.8351 8.75789 89.3328 8.97502 89.3328H6.8618H6.85927ZM9.25779 89.3328C9.47745 89.3328 9.44462 88.8351 9.44462 88.8351C9.44462 88.4605 9.25779 88.3047 9.25779 88.3047L9.44462 88.1966V85.8059H11.2524V88.1966L11.4392 88.3047C11.4392 88.3047 11.2524 88.4605 11.2524 88.8351C11.2524 88.8351 11.2221 89.3328 11.4392 89.3328H9.25527H9.25779ZM11.722 89.3328C11.9416 89.3328 11.9088 88.8351 11.9088 88.8351C11.9088 88.4605 11.722 88.3047 11.722 88.3047L11.9088 88.1966V85.8059H13.4186V88.1966L13.6054 88.3047C13.6054 88.3047 13.4186 88.4605 13.4186 88.8351C13.4186 88.8351 13.3883 89.3328 13.6054 89.3328H11.7194H11.722ZM13.8882 89.3328C14.1079 89.3328 14.075 88.8351 14.075 88.8351C14.075 88.4605 13.8882 88.3047 13.8882 88.3047L14.075 88.1966V85.8059H15.8828V88.1966L16.0696 88.3047C16.0696 88.3047 15.8828 88.4605 15.8828 88.8351C15.8828 88.8351 15.8525 89.3328 16.0696 89.3328H13.8857H13.8882ZM16.3524 89.3328C16.572 89.3328 16.5392 88.8351 16.5392 88.8351C16.5392 88.4605 16.3524 88.3047 16.3524 88.3047L16.5392 88.1966V85.8059H18.2813V88.1966L18.4681 88.3047C18.4681 88.3047 18.2813 88.4605 18.2813 88.8351C18.2813 88.8351 18.251 89.3328 18.4681 89.3328H16.3498H16.3524ZM18.7509 89.3328C18.9705 89.3328 18.9377 88.8351 18.9377 88.8351C18.9377 88.4605 18.7509 88.3047 18.7509 88.3047L18.9377 88.1966V85.8059H20.7454V88.1966L20.9323 88.3047C20.9323 88.3047 20.7454 88.4605 20.7454 88.8351C20.7454 88.8351 20.7151 89.3328 20.9323 89.3328H18.7484H18.7509ZM21.215 89.3328C21.4347 89.3328 21.4019 88.8351 21.4019 88.8351C21.4019 88.4605 21.215 88.3047 21.215 88.3047L21.4019 88.1966V85.8059H22.9647V88.1966L23.1515 88.3047C23.1515 88.3047 22.9647 88.4605 22.9647 88.8351C22.9647 88.8351 22.9344 89.3328 23.1515 89.3328H21.2125H21.215ZM23.4343 89.3328C23.654 89.3328 23.6211 88.8351 23.6211 88.8351C23.6211 88.4605 23.4343 88.3047 23.4343 88.3047L23.6211 88.1966V85.8059H25.4289V88.1966L25.6157 88.3047C25.6157 88.3047 25.4289 88.4605 25.4289 88.8351C25.4289 88.8351 25.3986 89.3328 25.6157 89.3328H23.4318H23.4343ZM25.8985 89.3328C26.1181 89.3328 26.0853 88.8351 26.0853 88.8351C26.0853 88.4605 25.8985 88.3047 25.8985 88.3047L26.0853 88.1966V85.8059H27.8274V88.1966L28.0142 88.3047C28.0142 88.3047 27.8274 88.4605 27.8274 88.8351C27.8274 88.8351 27.7971 89.3328 28.0142 89.3328H25.8959H25.8985ZM28.297 89.3328C28.5166 89.3328 28.4838 88.8351 28.4838 88.8351C28.4838 88.4605 28.297 88.3047 28.297 88.3047L28.4838 88.1966V85.8059H30.2915V88.1966L30.4784 88.3047C30.4784 88.3047 30.2915 88.4605 30.2915 88.8351C30.2915 88.8351 30.2612 89.3328 30.4784 89.3328H28.2945H28.297ZM30.7611 89.3328C30.9808 89.3328 30.948 88.8351 30.948 88.8351C30.948 88.4605 30.7611 88.3047 30.7611 88.3047L30.948 88.1966V85.8059H32.5865V88.1966L32.7734 88.3047C32.7734 88.3047 32.5865 88.4605 32.5865 88.8351C32.5865 88.8351 32.5562 89.3328 32.7734 89.3328H30.7611ZM33.0561 89.3328C33.2758 89.3328 33.243 88.8351 33.243 88.8351C33.243 88.4605 33.0561 88.3047 33.0561 88.3047L33.243 88.1966V85.8059H35.0507V88.1966L35.2375 88.3047C35.2375 88.3047 35.0507 88.4605 35.0507 88.8351C35.0507 88.8351 35.0204 89.3328 35.2375 89.3328H33.0536H33.0561ZM35.5203 89.3328C35.74 89.3328 35.7071 88.8351 35.7071 88.8351C35.7071 88.4605 35.5203 88.3047 35.5203 88.3047L35.7071 88.1966V85.8059H37.4492V88.1966L37.6361 88.3047C37.6361 88.3047 37.4492 88.4605 37.4492 88.8351C37.4492 88.8351 37.4189 89.3328 37.6361 89.3328H35.5178H35.5203ZM37.9188 89.3328C38.1385 89.3328 38.1057 88.8351 38.1057 88.8351C38.1057 88.4605 37.9188 88.3047 37.9188 88.3047L38.1057 88.1966V85.8059H39.9134V88.1966L40.1002 88.3047C40.1002 88.3047 39.9134 88.4605 39.9134 88.8351C39.9134 88.8351 39.8831 89.3328 40.1002 89.3328H37.9163H37.9188Z" fill="#AB3253"/>
<path d="M46.2603 80.3045H46.2199H29.7307V101.765H46.2199H46.2603H62.7495V80.3045H46.2603Z" fill="#47270D"/>
<path d="M56.9224 80.204H35.8735V100.958H56.9224V80.204Z" fill="#603412"/>
<path d="M57.2051 29.8037C54.8015 21.4326 46.2603 19.4391 46.2603 19.4391C46.2603 19.4391 37.719 21.4326 35.3154 29.8037C32.9119 38.1748 24.5044 70.601 26.908 80.302H65.6125C68.0161 70.601 59.6061 38.1748 57.2051 29.8037Z" fill="#FFB76B"/>
<path d="M57.2051 29.8037C54.8015 21.4326 46.2603 19.4391 46.2603 19.4391V80.3045H65.6125C68.0161 70.6035 59.6061 38.1773 57.2051 29.8062V29.8037Z" fill="#F2A661"/>
<path d="M42.8341 80.204H26.9862C26.557 78.404 26.4686 75.7142 26.7236 72.2049C26.966 68.8816 27.5189 64.7865 28.3647 60.0303C28.3748 59.975 28.337 59.9247 28.2839 59.9147C28.2284 59.9046 28.1779 59.9423 28.1678 59.9951C27.3195 64.7589 26.7666 68.8615 26.5242 72.1898C26.2641 75.7695 26.3601 78.5071 26.8095 80.3271C26.8196 80.3724 26.86 80.4026 26.9054 80.4026H42.8316C42.8871 80.4026 42.9326 80.3573 42.9326 80.302C42.9326 80.2467 42.8871 80.2014 42.8316 80.2014L42.8341 80.204Z" fill="#723E14"/>
<path d="M46.2375 19.3411C46.1517 19.3612 37.6104 21.4452 35.2195 29.7761C35.2043 29.8289 35.2346 29.8842 35.2876 29.8993C35.2977 29.9018 35.3053 29.9043 35.3154 29.9043C35.3583 29.9043 35.3987 29.8766 35.4114 29.8314C37.7695 21.6136 46.1971 19.5547 46.283 19.5346C46.336 19.5221 46.3713 19.4693 46.3587 19.414C46.3461 19.3612 46.2931 19.326 46.2375 19.3386V19.3411Z" fill="#723E14"/>
<path d="M64.5521 61.144C63.1736 53.1298 61.1941 44.721 59.7752 39.0799C59.7626 39.0271 59.7071 38.9944 59.654 39.007C59.601 39.0195 59.5682 39.0748 59.5808 39.1276C60.9972 44.7662 62.9766 53.17 64.3551 61.1766C65.9584 70.4905 66.3472 76.9159 65.5165 80.2794C65.5039 80.3322 65.5367 80.3875 65.5897 80.4001C65.5973 80.4001 65.6049 80.4026 65.615 80.4026C65.6604 80.4026 65.7008 80.3724 65.7109 80.3272C66.5492 76.9385 66.1603 70.4829 64.5546 61.144H64.5521Z" fill="#723E14"/>
<path d="M41.5036 23.2275C41.5036 23.2275 30.2432 44.0246 29.8418 80.3045H32.1116C32.1116 80.3045 30.2104 57.0489 41.5036 23.2275Z" fill="#E8954B"/>
<path d="M42.8342 23.2275C42.8342 23.2275 34.3636 46.0181 32.9043 80.3045H35.164C35.164 80.3045 36.6031 45.4876 42.8316 23.2275H42.8342Z" fill="#E8954B"/>
<path d="M51.8577 23.2275C51.8577 23.2275 63.1181 44.0246 63.5195 80.3045H61.2498C61.2498 80.3045 63.1509 57.0489 51.8577 23.2275Z" fill="#E8954B"/>
<path d="M50.5271 23.2275C50.5271 23.2275 58.9977 46.0181 60.457 80.3045H58.1973C58.1973 80.3045 56.7582 45.4876 50.5296 23.2275H50.5271Z" fill="#E8954B"/>
<path d="M38.8856 83.2935H26.1406V83.9244H38.8856V83.2935Z" fill="#93152A"/>
<path d="M66.3775 83.2935H53.6326V83.9244H66.3775V83.2935Z" fill="#93152A"/>
<path d="M66.7463 82.929L59.4396 66.6819H33.0786L25.772 82.929H38.8856C40.4863 76.5513 46.2604 77.0491 46.2604 77.0491C46.2604 77.0491 52.032 76.5513 53.6352 82.929H66.7488H66.7463Z" fill="#93152A"/>
<path d="M38.8857 82.929H26.479V83.2935H38.8857V82.929Z" fill="#5B0F1F"/>
<path d="M53.6353 83.2935H66.042V82.9289H53.6353V83.2935Z" fill="#5B0F1F"/>
<path d="M37.0705 76.9737L35.4976 77.5971L36.4393 78.1979L37.381 78.7987L37.2901 77.1145C37.2901 77.1145 40.4158 76.5388 39.9033 72.8082C36.2878 73.9093 37.073 76.9762 37.073 76.9762L37.0705 76.9737Z" fill="white"/>
<path d="M38.2848 81.8606H27.6581L33.0888 69.7187C33.1166 69.6584 33.0888 69.588 33.0282 69.5603C32.9676 69.5327 32.8969 69.5603 32.8692 69.6206L27.3627 81.9285C27.345 81.9662 27.3501 82.0089 27.3728 82.0416C27.3955 82.0743 27.4334 82.0969 27.4738 82.0969H38.2848C38.3504 82.0969 38.406 82.0441 38.406 81.9762C38.406 81.9084 38.3529 81.8556 38.2848 81.8556V81.8606Z" fill="white"/>
<path d="M55.14 78.7962L56.0817 78.1954L57.0234 77.5946L55.4505 76.9711C55.4505 76.9711 56.2357 73.9042 52.6203 72.8032C52.1077 76.5337 55.2334 77.1094 55.2334 77.1094L55.1425 78.7937L55.14 78.7962Z" fill="white"/>
<path d="M65.1558 81.9335L59.6493 69.6257C59.6216 69.5654 59.5509 69.5377 59.4903 69.5654C59.4297 69.593 59.4019 69.6634 59.4297 69.7238L64.8604 81.8657H54.2337C54.1681 81.8657 54.1125 81.9185 54.1125 81.9863C54.1125 82.0542 54.1656 82.107 54.2337 82.107H65.0447C65.0851 82.107 65.123 82.0869 65.1457 82.0517C65.1685 82.0165 65.171 81.9738 65.1558 81.9386V81.9335Z" fill="white"/>
<path d="M46.2403 75.8022C47.1801 75.8022 47.9419 75.0436 47.9419 74.1079C47.9419 73.1721 47.1801 72.4135 46.2403 72.4135C45.3004 72.4135 44.5386 73.1721 44.5386 74.1079C44.5386 75.0436 45.3004 75.8022 46.2403 75.8022Z" fill="white"/>
<path d="M46.2603 63.9192H32.9043V64.7588H33.5809V69.7463C33.5809 70.5306 34.2197 71.1666 35.0074 71.1666H35.3255C36.1133 71.1666 36.752 70.5306 36.752 69.7463C36.752 70.5306 37.3908 71.1666 38.1785 71.1666H38.4966C39.2844 71.1666 39.9231 70.5306 39.9231 69.7463C39.9231 70.5306 40.5619 71.1666 41.3496 71.1666H41.6677C42.4555 71.1666 43.0942 70.5306 43.0942 69.7463C43.0942 70.5306 43.733 71.1666 44.5207 71.1666H44.8388C45.6265 71.1666 46.2653 70.5306 46.2653 69.7463C46.2653 70.5306 46.9041 71.1666 47.6918 71.1666H48.0099C48.7976 71.1666 49.4364 70.5306 49.4364 69.7463C49.4364 70.5306 50.0752 71.1666 50.8629 71.1666H51.181C51.9687 71.1666 52.6075 70.5306 52.6075 69.7463C52.6075 70.5306 53.2463 71.1666 54.034 71.1666H54.3521C55.1398 71.1666 55.7786 70.5306 55.7786 69.7463C55.7786 70.5306 56.4174 71.1666 57.2051 71.1666H57.5232C58.3109 71.1666 58.9497 70.5306 58.9497 69.7463V64.7588H59.6263V63.9192H46.2704H46.2603Z" fill="#DD2C52"/>
<path d="M36.444 64.9373H33.8864C33.8587 64.9373 33.8359 64.9599 33.8359 64.9875V69.7463C33.8359 70.4049 34.3737 70.9429 35.0377 70.9429H35.2927C35.9542 70.9429 36.4945 70.4074 36.4945 69.7463V64.9875C36.4945 64.9599 36.4718 64.9373 36.444 64.9373ZM36.3935 69.7463C36.3935 70.3496 35.8987 70.8423 35.2927 70.8423H35.0377C34.4318 70.8423 33.9369 70.3496 33.9369 69.7463V65.0353H36.396V69.7463H36.3935Z" fill="white"/>
<path d="M39.6152 64.9373H37.0576C37.0298 64.9373 37.0071 64.9599 37.0071 64.9875V69.7463C37.0071 70.4049 37.5449 70.9429 38.2089 70.9429H38.4639C39.1253 70.9429 39.6656 70.4074 39.6656 69.7463V64.9875C39.6656 64.9599 39.6429 64.9373 39.6152 64.9373ZM39.5647 69.7463C39.5647 70.3496 39.0698 70.8423 38.4639 70.8423H38.2089C37.6029 70.8423 37.1081 70.3496 37.1081 69.7463V65.0353H39.5672V69.7463H39.5647Z" fill="white"/>
<path d="M42.7836 64.9373H40.226C40.1983 64.9373 40.1755 64.9599 40.1755 64.9875V69.7463C40.1755 70.4049 40.7133 70.9429 41.3773 70.9429H41.6323C42.2938 70.9429 42.8341 70.4074 42.8341 69.7463V64.9875C42.8341 64.9599 42.8114 64.9373 42.7836 64.9373ZM42.7331 69.7463C42.7331 70.3496 42.2383 70.8423 41.6323 70.8423H41.3773C40.7714 70.8423 40.2765 70.3496 40.2765 69.7463V65.0353H42.7356V69.7463H42.7331Z" fill="white"/>
<path d="M45.9547 64.9373H43.3972C43.3694 64.9373 43.3467 64.9599 43.3467 64.9875V69.7463C43.3467 70.4049 43.8845 70.9429 44.5485 70.9429H44.8035C45.4649 70.9429 46.0052 70.4074 46.0052 69.7463V64.9875C46.0052 64.9599 45.9825 64.9373 45.9547 64.9373ZM45.9043 69.7463C45.9043 70.3496 45.4094 70.8423 44.8035 70.8423H44.5485C43.9425 70.8423 43.4477 70.3496 43.4477 69.7463V65.0353H45.9068V69.7463H45.9043Z" fill="white"/>
<path d="M58.6342 64.9373H56.0766C56.0488 64.9373 56.0261 64.9599 56.0261 64.9875V69.7463C56.0261 70.4049 56.5639 70.9429 57.2279 70.9429H57.4829C58.1444 70.9429 58.6847 70.4074 58.6847 69.7463V64.9875C58.6847 64.9599 58.662 64.9373 58.6342 64.9373ZM58.5837 69.7463C58.5837 70.3496 58.0889 70.8423 57.4829 70.8423H57.2279C56.622 70.8423 56.1271 70.3496 56.1271 69.7463V65.0353H58.5862V69.7463H58.5837Z" fill="white"/>
<path d="M55.4631 64.9373H52.9055C52.8777 64.9373 52.855 64.9599 52.855 64.9875V69.7463C52.855 70.4049 53.3928 70.9429 54.0568 70.9429H54.3118C54.9733 70.9429 55.5135 70.4074 55.5135 69.7463V64.9875C55.5135 64.9599 55.4908 64.9373 55.4631 64.9373ZM55.4126 69.7463C55.4126 70.3496 54.9177 70.8423 54.3118 70.8423H54.0568C53.4508 70.8423 52.956 70.3496 52.956 69.7463V65.0353H55.4151V69.7463H55.4126Z" fill="white"/>
<path d="M52.2944 64.9373H49.7368C49.709 64.9373 49.6863 64.9599 49.6863 64.9875V69.7463C49.6863 70.4049 50.2241 70.9429 50.8881 70.9429H51.1431C51.8046 70.9429 52.3449 70.4074 52.3449 69.7463V64.9875C52.3449 64.9599 52.3221 64.9373 52.2944 64.9373ZM52.2439 69.7463C52.2439 70.3496 51.749 70.8423 51.1431 70.8423H50.8881C50.2821 70.8423 49.7873 70.3496 49.7873 69.7463V65.0353H52.2464V69.7463H52.2439Z" fill="white"/>
<path d="M49.1235 64.9373H46.5659C46.5381 64.9373 46.5154 64.9599 46.5154 64.9875V69.7463C46.5154 70.4049 47.0532 70.9429 47.7172 70.9429H47.9722C48.6337 70.9429 49.1739 70.4074 49.1739 69.7463V64.9875C49.1739 64.9599 49.1512 64.9373 49.1235 64.9373ZM49.073 69.7463C49.073 70.3496 48.5781 70.8423 47.9722 70.8423H47.7172C47.1112 70.8423 46.6164 70.3496 46.6164 69.7463V65.0353H49.0755V69.7463H49.073Z" fill="white"/>
<path d="M50.156 60.6512C49.9313 57.7854 46.2603 54.8467 46.2603 54.8467C46.2603 54.8467 42.5893 57.7879 42.3646 60.6512C42.1399 63.517 46.2603 63.9192 46.2603 63.9192C46.2603 63.9192 50.3807 63.517 50.156 60.6512Z" fill="#DD2C52"/>
<path d="M49.4237 61.1112C49.242 58.7834 46.2602 56.3977 46.2602 56.3977C46.2602 56.3977 43.281 58.7859 43.0967 61.1112C42.9124 63.4365 46.2602 63.7658 46.2602 63.7658C46.2602 63.7658 49.6055 63.439 49.4237 61.1112Z" fill="white"/>
<path d="M49.0704 60.9553C48.9113 58.9417 46.4295 56.9307 46.3235 56.8452L46.2603 56.7949L46.1972 56.8452C46.0912 56.9307 43.6068 58.9417 43.4503 60.9553C43.2887 63.0217 46.2225 63.3335 46.2502 63.336H46.2603H46.2704C46.3007 63.3335 49.2345 63.0217 49.0704 60.9553ZM46.2603 63.1374C46.0786 63.1173 43.5058 62.7905 43.6497 60.9704C43.7886 59.2158 45.869 57.3832 46.2603 57.0513C46.6517 57.3806 48.7321 59.2132 48.8709 60.9704C49.0148 62.7879 46.4396 63.1147 46.2603 63.1374Z" fill="#F2A661"/>
<path d="M46.3082 9.63L56.9475 10.7612L46.2603 13.1519L46.3082 9.63Z" fill="#603412"/>
<path d="M48.9037 19.4391V19.0168H48.2776V18.6673H49.6056V18.0188L48.2271 17.2722H47.0026V15.975H47.8282V14.9795L47.0783 14.4315L46.2603 9.6225L45.4423 14.4315L44.6924 14.9795V15.975H45.518V17.2722H44.291L42.915 18.0188V18.6673H44.2405V19.0168H43.6144V19.4391L38.3604 22.5538L39.4031 23.2275H46.2603H53.1176L54.1603 22.5538L48.9037 19.4391Z" fill="#DD2C52"/>
<path d="M38.3604 22.5537H54.1603L53.1176 23.2274H39.4031L38.3604 22.5537Z" fill="#A81D41"/>
<path d="M43.6143 19.4391H48.9036L46.3587 19.8866L43.6143 19.4391Z" fill="#A81D41"/>
<path d="M48.2776 18.6673H44.2405V19.0167H48.2776V18.6673Z" fill="#A81D41"/>
<path d="M47.0026 15.975H45.5181V16.5481H47.0026V15.975Z" fill="#A81D41"/>
<path d="M44.2657 17.2269L42.8897 17.9735C42.8745 17.981 42.8644 17.9986 42.8644 18.0162V18.6648C42.8644 18.6925 42.8872 18.7151 42.9149 18.7151H44.1899V18.964H43.6143C43.5865 18.964 43.5638 18.9866 43.5638 19.0142V19.4089L38.3325 22.5085C38.3098 22.5236 38.2997 22.5537 38.3148 22.5764C38.3249 22.5914 38.3401 22.6015 38.3577 22.6015C38.3653 22.6015 38.3754 22.6015 38.383 22.594L43.637 19.4793C43.6522 19.4692 43.6623 19.4542 43.6623 19.4366V19.062H44.2379C44.2657 19.062 44.2884 19.0394 44.2884 19.0117V18.6623C44.2884 18.6346 44.2657 18.612 44.2379 18.612H42.9604V18.0439L44.3111 17.3098C44.3364 17.2973 44.3439 17.2671 44.3313 17.242C44.3187 17.2168 44.2884 17.2093 44.2631 17.2219L44.2657 17.2269Z" fill="#66122C"/>
<path d="M45.5179 15.9247H44.7428V15.0021L45.4725 14.4692C45.4725 14.4692 45.4902 14.4491 45.4927 14.4365L46.3082 9.63002C46.3132 9.60237 46.2956 9.57723 46.2678 9.57221C46.2425 9.56718 46.2148 9.58478 46.2097 9.61243L45.3967 14.4013L44.662 14.9368C44.6494 14.9468 44.6418 14.9619 44.6418 14.977V15.9725C44.6418 16.0001 44.6646 16.0228 44.6923 16.0228H45.5179C45.5457 16.0228 45.5684 16.0001 45.5684 15.9725C45.5684 15.9448 45.5457 15.9222 45.5179 15.9222V15.9247Z" fill="#66122C"/>
<path d="M36.9415 97.5395L36.5653 97.1674V92.4841V92.3986V87.7153L36.9415 87.3433V86.1643L37.2596 83.9244H35.8736H34.49L34.8056 86.1643V87.3433L35.1818 87.7153V92.3986V92.4841V97.1674L34.8056 97.5395V98.7185L34.49 100.958H35.8736H37.2596L36.9415 98.7185V97.5395Z" fill="#DD2C52"/>
<path d="M36.5653 87.6676H35.2045L34.8358 87.2226V86.016L34.5379 83.9194C34.5329 83.8918 34.5076 83.8717 34.4824 83.8767C34.4546 83.8792 34.4369 83.9069 34.4394 83.932L34.7348 86.021V87.2402C34.7348 87.2402 34.7399 87.2629 34.7475 87.2729L35.1312 87.7355V97.1674C35.1312 97.1951 35.154 97.2177 35.1817 97.2177C35.2095 97.2177 35.2322 97.1951 35.2322 97.1674V87.7681H36.5678C36.5956 87.7681 36.6183 87.7455 36.6183 87.7179C36.6183 87.6902 36.5956 87.6676 36.5678 87.6676H36.5653Z" fill="white"/>
<path d="M30.8239 97.5395L30.4477 97.1674V92.4841V92.3986V87.7153L30.8239 87.3433V86.1643L31.1395 83.9244H29.756H28.3699L28.688 86.1643V87.3433L29.0642 87.7153V92.3986V92.4841V97.1674L28.688 97.5395V98.7185L28.3699 100.958H29.756H31.1395L30.8239 98.7185V97.5395Z" fill="#DD2C52"/>
<path d="M30.4479 87.6676H29.087L28.7184 87.2226V86.016L28.4205 83.9194C28.4154 83.8918 28.3902 83.8717 28.3649 83.8767C28.3372 83.8792 28.3195 83.9069 28.322 83.932L28.6174 86.021V87.2402C28.6174 87.2402 28.6225 87.2629 28.63 87.2729L29.0138 87.7355V97.1674C29.0138 97.1951 29.0365 97.2177 29.0643 97.2177C29.0921 97.2177 29.1148 97.1951 29.1148 97.1674V87.7681H30.4504C30.4782 87.7681 30.5009 87.7455 30.5009 87.7179C30.5009 87.6902 30.4782 87.6676 30.4504 87.6676H30.4479Z" fill="white"/>
<path d="M55.8544 97.5395L56.2306 97.1674V92.4841V92.3986V87.7153L55.8544 87.3433V86.1643L55.5388 83.9244H56.9224H58.306L57.9904 86.1643V87.3433L57.6142 87.7153V92.3986V92.4841V97.1674L57.9904 97.5395V98.7185L58.306 100.958H56.9224H55.5388L55.8544 98.7185V97.5395Z" fill="#DD2C52"/>
<path d="M56.2305 87.6676H57.5914L57.96 87.2226V86.016L58.2579 83.9194C58.2629 83.8918 58.2882 83.8717 58.3134 83.8767C58.3412 83.8792 58.3589 83.9069 58.3564 83.932L58.061 86.021V87.2402C58.061 87.2402 58.0559 87.2629 58.0483 87.2729L57.6646 87.7355V97.1674C57.6646 97.1951 57.6418 97.2177 57.6141 97.2177C57.5863 97.2177 57.5636 97.1951 57.5636 97.1674V87.7681H56.228C56.2002 87.7681 56.1775 87.7455 56.1775 87.7179C56.1775 87.6902 56.2002 87.6676 56.228 87.6676H56.2305Z" fill="white"/>
<path d="M61.9746 97.5395L62.3483 97.1674V92.4841V92.3986V87.7153L61.9746 87.3433V86.1643L61.6565 83.9244H63.0426H64.4262L64.108 86.1643V87.3433L63.7344 87.7153V92.3986V92.4841V97.1674L64.108 97.5395V98.7185L64.4262 100.958H63.0426H61.6565L61.9746 98.7185V97.5395Z" fill="#DD2C52"/>
<path d="M62.3482 87.6676H63.709L64.0776 87.2226V86.016L64.3756 83.9194C64.3806 83.8918 64.4059 83.8717 64.4311 83.8767C64.4589 83.8792 64.4766 83.9069 64.474 83.932L64.1786 86.021V87.2402C64.1786 87.2402 64.1736 87.2629 64.166 87.2729L63.7822 87.7355V97.1674C63.7822 97.1951 63.7595 97.2177 63.7318 97.2177C63.704 97.2177 63.6813 97.1951 63.6813 97.1674V87.7681H62.3457C62.3179 87.7681 62.2952 87.7455 62.2952 87.7179C62.2952 87.6902 62.3179 87.6676 62.3457 87.6676H62.3482Z" fill="white"/>
</g>
</svg>
